PathFileType	4	(X/Y/Z)	C:\human.trc
DataRate	CameraRate	NumFrames	NumMarkers	Units	OrigDataRate	OrigDataStartFrame	OrigNumFrames
200.00	200.00	      6	35	mm	200.00	1791	      2387
Frame#	Time	HEADF			HEADR			HEADL			RSHO			RELBL			RELBM			RWRISTR			RWRISTU			RMP			LSHO			LELBL			LELBM			LWRISTR			LWRISTU			LMP			RPEL			RHIP			RKNEEO			RANK			RHEEL			RPINKY			RTHUMB			LPEL			LHIP			LKNEEO			LANK			LHEEL			LPINKY			LTHUMB			T1			T7			L5			STERNUP			STERNLOW			SCAP			
		X1	Y1	Z1	X2	Y2	Z2	X3	Y3	Z3	X4	Y4	Z4	X5	Y5	Z5	X6	Y6	Z6	X7	Y7	Z7	X8	Y8	Z8	X9	Y9	Z9	X10	Y10	Z10	X11	Y11	Z11	X12	Y12	Z12	X13	Y13	Z13	X14	Y14	Z14	X15	Y15	Z15	X16	Y16	Z16	X17	Y17	Z17	X18	Y18	Z18	X19	Y19	Z19	X20	Y20	Z20	X21	Y21	Z21	X22	Y22	Z22	X23	Y23	Z23	X24	Y24	Z24	X25	Y25	Z25	X26	Y26	Z26	X27	Y27	Z27	X28	Y28	Z28	X29	Y29	Z29	X30	Y30	Z30	X31	Y31	Z31	X32	Y32	Z32	X33	Y33	Z33	X34	Y34	Z34	X35	Y35	Z35	

1791	8.950	-1.85192	-173.67967	560.72272	-83.45889	-108.73331	647.03857	75.78233	-167.89400	585.24323	-126.54757	41.98046	628.26398	-194.19472	28.86015	364.10016	-155.46475	79.47236	353.24677	-118.04249	-89.47571	180.17262	-154.28407	-44.12921	145.26201	-169.02325	-113.28933	106.43204	152.98331	24.56193	609.42542	209.13730	-13.23338	354.89832	168.41122	51.57327	332.92975	122.14123	-102.38493	161.92828	172.29436	-69.27735	137.67606	167.95540	-143.69092	80.26749				-142.93503	467.14249	646.69983	-184.83525	221.54315	376.08905				-61.84964	455.57108	73.19688	-176.87503	338.02118	48.16373	-119.48566	271.37811	53.84927	141.16481	405.96143	597.79724	207.29356	480.34341	607.95587	223.69452	207.75613	392.96198	170.39818	376.31995	87.60146				213.62856	289.51697	49.90936	136.86456	238.90837	54.51739	12.22709	18.88359	716.95123	30.75843	171.87244	775.33038	36.06743	470.65118	745.33704							-103.04732	174.12309	737.43713	
1792	8.955	-1.94338	-173.66701	560.69775	-83.42936	-108.71222	647.09888	75.61472	-168.12894	584.98834	-126.56227	41.85092	628.11993	-194.40186	28.73087	364.00290	-155.52698	79.36455	353.18726	-118.02922	-89.72192	180.10909	-154.30292	-44.59036	145.32306	-169.03275	-113.58111	106.42954	152.97614	24.57233	609.23083	209.29594	-13.26216	354.68927	168.58873	51.66056	332.40256	122.15762	-102.72530	161.87914	172.31314	-69.55856	137.53795	167.95564	-143.85846	80.10745				-142.99706	467.18652	646.68317	-184.90569	221.78694	376.05408				-61.84964	455.57108	73.19688	-176.90039	337.58102	48.29734	-119.49629	271.37515	53.85851	141.16606	405.99228	597.77814	207.21880	480.38330	607.75720	223.67059	207.74202	392.96298	170.38268	376.32147	87.60555				213.52220	289.49164	50.09464	136.85126	238.90663	54.50387	12.24430	18.94304	716.91052	30.84380	171.91237	775.22223	36.05519	470.63608	745.30914							-102.97160	174.11099	737.34491	
1793	8.960	-2.04462	-173.65199	560.68463	-83.45935	-108.70296	647.10596	75.54243	-168.10767	584.93347	-126.50185	41.88644	628.07135	-194.46382	28.54213	363.99002	-155.88480	79.04388	352.90509	-117.99471	-90.01689	180.13770				-169.07219	-113.86901	106.44512	152.93044	24.57365	609.03461	209.32687	-13.35698	354.56039	168.21005	51.49625	332.21814	122.24277	-102.81765	161.80382	172.41698	-69.86709	137.25307	167.62749	-145.89079	80.71989				-143.07011	467.33591	646.58832	-185.01642	221.73035	376.04425				-61.84964	455.57108	73.19688	-176.87633	338.01917	48.15542	-129.42520	274.56549	62.58683	141.15976	406.02087	597.76300	207.22748	480.37619	607.72943	223.51912	207.89290	392.75363	170.36655	376.32025	87.60045				213.64383	289.44897	50.08192	136.83009	238.91512	54.48207	12.21334	18.87093	717.18176	30.87513	171.93365	775.12091	36.05555	470.75366	745.27197							-102.91179	174.17178	737.22113	
1794	8.965	-2.13987	-173.63618	560.69684	-83.44087	-108.66149	647.14459	75.45135	-168.07558	584.85004	-126.48340	41.76429	627.97021	-194.57193	28.43002	363.95749	-155.96744	78.97091	352.89059	-118.01919	-90.22253	180.09424				-169.17947	-114.34964	106.43035	152.91945	24.62075	608.86847	209.38509	-13.49023	354.41425	166.73109	51.01781	332.59302	122.29694	-103.40481	161.96951	172.57904	-70.26489	137.31929	167.76561	-146.30203	80.89783				-143.08038	467.38504	646.53925	-185.11865	221.52477	376.07394				-61.84964	455.57108	73.19688	-176.87738	338.01965	48.15900	-129.46968	274.52512	62.49380	141.02145	406.07822	597.61731	207.23277	480.38770	607.69342	222.99567	207.68375	392.82327	170.33832	376.32233	87.59621				213.63623	289.45111	50.08729	136.79971	238.90782	54.45667				30.89067	171.90726	774.98376	36.06693	470.77585	745.26447	-58.04722	-101.38038	547.80426				-102.84787	174.14944	737.13892	
1795	8.970	-2.23180	-173.61995	560.72308	-83.42127	-108.63415	647.13641	75.43562	-167.90051	584.81793	-126.45816	41.70227	627.89459	-194.62502	28.32506	363.95102	-156.27277	78.77386	352.59912	-118.01305	-90.51278	180.13489				-169.27928	-114.73752	106.49950	152.94662	24.78776	608.70959	209.46567	-13.57182	354.36716	166.90269	50.98087	332.57690	122.36994	-103.61556	161.90364	172.88266	-70.68814	137.57060	167.71884	-146.45068	80.55852				-143.07898	467.39316	646.57629	-185.22597	221.50244	376.05130				-61.49807	457.59192	72.79093	-176.88145	338.01816	48.15670	-129.55389	274.55527	62.45874	140.77640	406.05362	597.34583	207.08488	480.36584	607.57220	222.96510	207.63509	392.82086	170.32536	376.32501	87.58855				213.60382	289.51050	49.93767	136.77672	238.91737	54.43435				30.96437	171.92752	774.94788	36.07656	470.81296	745.23840	-58.12410	-101.28165	547.85126				-102.79574	174.14943	737.05731	
1796	8.975	-2.29755	-173.50066	560.79456	-83.44382	-108.61366	647.22998	75.44749	-167.56348	584.77002	-126.40990	41.73159	627.83173	-194.68990	28.13486	364.00336	-156.45596	78.63316	352.56216	-118.10767	-90.68195	180.11823				-169.35802	-115.09531	106.50919	152.93709	24.85924	608.63379	209.52660	-13.67672	354.36526	168.54192	50.52405	333.11877	122.65840	-103.63975	162.12032	172.89920	-70.99685	137.53429	167.71442	-146.81665	80.56355				-143.14291	467.50211	646.58521	-185.28526	221.71927	375.97775				-61.93631	455.96558	73.06417				-129.66417	274.53973	62.41915	140.90074	406.18820	597.26025	207.10432	480.35666	607.54926	222.90604	207.59679	392.82294	170.31242	376.32083	87.57183				213.53740	289.41391	49.93767	136.74495	238.91513	54.40487				31.10741	172.06181	774.81909	36.05308	470.87485	745.15039							-102.75071	174.10365	736.99164	
